<?xml version="1.0" standalone="no"?>
<!DOCTYPE svg PUBLIC "-//W3C//DTD SVG 20010904//EN"
 "http://www.w3.org/TR/2001/REC-SVG-20010904/DTD/svg10.dtd">
<svg version="1.0" xmlns="http://www.w3.org/2000/svg"
 width="375.000000pt" height="812.000000pt" viewBox="0 0 375.000000 812.000000"
 preserveAspectRatio="xMidYMid meet">

<g transform="translate(0.000000,812.000000) scale(0.100000,-0.100000)"
fill="#000000" stroke="none">
<path d="M0 4060 l0 -4060 1875 0 1875 0 0 4060 0 4060 -1875 0 -1875 0 0
-4060z m2875 3290 c9 7 23 9 37 4 13 -5 28 -9 33 -9 38 -4 75 -19 75 -31 0 -8
9 -14 20 -14 11 0 20 -7 20 -15 0 -8 5 -15 11 -15 5 0 8 -4 4 -9 -3 -5 -1 -13
5 -16 6 -4 9 -1 8 6 -2 7 5 15 15 17 13 2 17 -3 17 -22 0 -14 5 -28 10 -31 6
-3 10 -17 10 -31 0 -21 4 -24 20 -19 18 6 20 2 20 -43 0 -69 -10 -112 -26
-112 -8 0 -14 -3 -15 -7 -5 -48 -16 -73 -33 -73 -7 0 -16 -7 -20 -15 -3 -8
-12 -15 -21 -15 -8 0 -15 -5 -15 -11 0 -6 -7 -9 -15 -5 -8 3 -20 -1 -28 -8 -7
-7 -23 -16 -35 -20 -17 -6 -21 -4 -16 8 7 19 -25 34 -36 17 -8 -14 -16 -14
-42 0 -11 6 -18 5 -21 -4 -5 -16 -47 20 -47 41 0 9 -3 13 -6 9 -3 -3 -15 3
-27 13 -11 11 -24 17 -28 15 -4 -3 -23 11 -42 32 -29 30 -37 47 -42 95 -7 58
0 130 16 160 12 22 69 79 69 68 0 -5 20 2 44 15 24 13 47 21 50 18 3 -4 6 0 7
8 0 11 2 11 6 1 4 -10 8 -10 18 -2z m225 -60 c0 -5 -4 -10 -10 -10 -5 0 -10 5
-10 10 0 6 5 10 10 10 6 0 10 -4 10 -10z m107 -197 c-2 -21 -4 -6 -4 32 0 39
2 55 4 38 2 -18 2 -50 0 -70z"/>
</g>
</svg>
